<svg width="128" height="24" viewBox="0 0 128 24" fill="none" xmlns="http://www.w3.org/2000/svg">
<g clip-path="url(#clip0)">
<path d="M1.2043 9.84666C1.26072 9.67845 1.36251 9.52909 1.49845 9.41508C1.63438 9.30106 1.79918 9.22682 1.97464 9.20054L8.12 8.26169L10.8778 2.38788C10.9556 2.22245 11.0788 2.08258 11.2331 1.9846C11.3874 1.88662 11.5665 1.83459 11.7492 1.83459C11.932 1.83459 12.1111 1.88662 12.2654 1.9846C12.4197 2.08258 12.5429 2.22245 12.6207 2.38788L15.3785 8.26169L21.5239 9.20054C21.6989 9.22722 21.8632 9.30165 21.9987 9.41564C22.1342 9.52963 22.2356 9.67877 22.2918 9.84667C22.3481 10.0146 22.3569 10.1947 22.3174 10.3673C22.2779 10.5399 22.1916 10.6983 22.0679 10.825L17.5894 15.4104L18.6486 21.8986C18.6775 22.0766 18.6558 22.2592 18.586 22.4256C18.5161 22.5919 18.401 22.7353 18.2537 22.8394C18.1063 22.9434 17.9327 23.004 17.7526 23.0142C17.5725 23.0245 17.3932 22.9839 17.235 22.8971L11.7464 19.8659L6.25771 22.8971C6.09955 22.9846 5.91997 23.0258 5.73949 23.016C5.55901 23.0062 5.38493 22.9459 5.23716 22.8418C5.08939 22.7377 4.97389 22.5942 4.90388 22.4275C4.83387 22.2609 4.81216 22.0779 4.84126 21.8995L5.90047 15.4114L1.42481 10.825C1.30173 10.6979 1.21604 10.5394 1.17714 10.3668C1.13824 10.1942 1.14764 10.0143 1.2043 9.84666Z" fill="#FFDC83"/>
</g>
<g clip-path="url(#clip1)">
<path d="M27.2033 9.84666C27.2597 9.67845 27.3615 9.52909 27.4975 9.41508C27.6334 9.30106 27.7982 9.22682 27.9737 9.20054L34.119 8.26169L36.8768 2.38788C36.9546 2.22245 37.0778 2.08258 37.2321 1.9846C37.3865 1.88662 37.5655 1.83459 37.7483 1.83459C37.9311 1.83459 38.1101 1.88662 38.2644 1.9846C38.4187 2.08258 38.542 2.22245 38.6197 2.38788L41.3775 8.26169L47.5229 9.20054C47.6979 9.22722 47.8622 9.30165 47.9977 9.41564C48.1332 9.52963 48.2346 9.67877 48.2909 9.84667C48.3471 10.0146 48.3559 10.1947 48.3164 10.3673C48.2769 10.5399 48.1906 10.6983 48.0669 10.825L43.5884 15.4104L44.6476 21.8986C44.6765 22.0766 44.6548 22.2592 44.585 22.4256C44.5152 22.5919 44.4 22.7353 44.2527 22.8394C44.1054 22.9434 43.9317 23.004 43.7516 23.0142C43.5715 23.0245 43.3922 22.9839 43.234 22.8971L37.7454 19.8659L32.2567 22.8971C32.0986 22.9846 31.919 23.0258 31.7385 23.016C31.558 23.0062 31.384 22.9459 31.2362 22.8418C31.0884 22.7377 30.9729 22.5942 30.9029 22.4275C30.8329 22.2609 30.8112 22.0779 30.8403 21.8995L31.8995 15.4114L27.4238 10.825C27.3008 10.6979 27.2151 10.5394 27.1762 10.3668C27.1373 10.1942 27.1467 10.0143 27.2033 9.84666Z" fill="#FFDC83"/>
</g>
<g clip-path="url(#clip2)">
<path d="M53.2021 9.84666C53.2585 9.67845 53.3603 9.52909 53.4963 9.41508C53.6322 9.30106 53.797 9.22682 53.9724 9.20054L60.1178 8.26169L62.8756 2.38788C62.9534 2.22245 63.0766 2.08258 63.2309 1.9846C63.3852 1.88662 63.5643 1.83459 63.7471 1.83459C63.9298 1.83459 64.1089 1.88662 64.2632 1.9846C64.4175 2.08258 64.5407 2.22245 64.6185 2.38788L67.3763 8.26169L73.5217 9.20054C73.6967 9.22722 73.861 9.30165 73.9965 9.41564C74.132 9.52963 74.2334 9.67877 74.2896 9.84667C74.3459 10.0146 74.3547 10.1947 74.3152 10.3673C74.2757 10.5399 74.1894 10.6983 74.0657 10.825L69.5872 15.4104L70.6464 21.8986C70.6753 22.0766 70.6536 22.2592 70.5838 22.4256C70.5139 22.5919 70.3988 22.7353 70.2515 22.8394C70.1041 22.9434 69.9305 23.004 69.7504 23.0142C69.5703 23.0245 69.391 22.9839 69.2328 22.8971L63.7442 19.8659L58.2555 22.8971C58.0974 22.9846 57.9178 23.0258 57.7373 23.016C57.5568 23.0062 57.3827 22.9459 57.235 22.8418C57.0872 22.7377 56.9717 22.5942 56.9017 22.4275C56.8317 22.2609 56.81 22.0779 56.8391 21.8995L57.8983 15.4114L53.4226 10.825C53.2995 10.6979 53.2138 10.5394 53.1749 10.3668C53.136 10.1942 53.1454 10.0143 53.2021 9.84666Z" fill="#FFDC83"/>
</g>
<g clip-path="url(#clip3)">
<path d="M79.2009 9.84666C79.2573 9.67845 79.3591 9.52909 79.495 9.41508C79.631 9.30106 79.7958 9.22682 79.9712 9.20054L86.1166 8.26169L88.8744 2.38788C88.9521 2.22245 89.0754 2.08258 89.2297 1.9846C89.384 1.88662 89.563 1.83459 89.7458 1.83459C89.9286 1.83459 90.1076 1.88662 90.262 1.9846C90.4163 2.08258 90.5395 2.22245 90.6173 2.38788L93.3751 8.26169L99.5204 9.20054C99.6955 9.22722 99.8598 9.30165 99.9953 9.41564C100.131 9.52963 100.232 9.67877 100.288 9.84667C100.345 10.0146 100.353 10.1947 100.314 10.3673C100.274 10.5399 100.188 10.6983 100.064 10.825L95.5859 15.4104L96.6452 21.8986C96.6741 22.0766 96.6524 22.2592 96.5825 22.4256C96.5127 22.5919 96.3976 22.7353 96.2503 22.8394C96.1029 22.9434 95.9293 23.004 95.7492 23.0142C95.5691 23.0245 95.3897 22.9839 95.2316 22.8971L89.7429 19.8659L84.2543 22.8971C84.0961 22.9846 83.9165 23.0258 83.7361 23.016C83.5556 23.0062 83.3815 22.9459 83.2337 22.8418C83.086 22.7377 82.9705 22.5942 82.9005 22.4275C82.8304 22.2609 82.8087 22.0779 82.8378 21.8995L83.8971 15.4114L79.4214 10.825C79.2983 10.6979 79.2126 10.5394 79.1737 10.3668C79.1348 10.1942 79.1442 10.0143 79.2009 9.84666Z" fill="#FFDC83"/>
</g>
<g clip-path="url(#clip4)">
<path d="M105.2 9.84666C105.256 9.67845 105.358 9.52909 105.494 9.41508C105.63 9.30106 105.795 9.22682 105.97 9.20054L112.116 8.26169L114.873 2.38788C114.951 2.22245 115.074 2.08258 115.229 1.9846C115.383 1.88662 115.562 1.83459 115.745 1.83459C115.928 1.83459 116.107 1.88662 116.261 1.9846C116.415 2.08258 116.539 2.22245 116.616 2.38788L119.374 8.26169L125.519 9.20054C125.695 9.22722 125.859 9.30165 125.994 9.41564C126.13 9.52963 126.231 9.67877 126.287 9.84667C126.344 10.0146 126.353 10.1947 126.313 10.3673C126.274 10.5399 126.187 10.6983 126.064 10.825L121.585 15.4104L122.644 21.8986C122.673 22.0766 122.651 22.2592 122.582 22.4256C122.512 22.5919 122.397 22.7353 122.249 22.8394C122.102 22.9434 121.928 23.004 121.748 23.0142C121.568 23.0245 121.389 22.9839 121.231 22.8971L115.742 19.8659L110.253 22.8971C110.095 22.9846 109.916 23.0258 109.735 23.016C109.555 23.0062 109.381 22.9459 109.233 22.8418C109.085 22.7377 108.969 22.5942 108.899 22.4275C108.829 22.2609 108.808 22.0779 108.837 21.8995L109.896 15.4114L105.42 10.825C105.297 10.6979 105.212 10.5394 105.173 10.3668C105.134 10.1942 105.143 10.0143 105.2 9.84666Z" fill="#FFDC83"/>
</g>
<defs>
<clipPath id="clip0">
<rect width="23.1101" height="23.1101" fill="white" transform="matrix(-1 0 0 1 23.3015 0.870422)"/>
</clipPath>
<clipPath id="clip1">
<rect width="23.1101" height="23.1101" fill="white" transform="matrix(-1 0 0 1 49.3005 0.870422)"/>
</clipPath>
<clipPath id="clip2">
<rect width="23.1101" height="23.1101" fill="white" transform="matrix(-1 0 0 1 75.2993 0.870422)"/>
</clipPath>
<clipPath id="clip3">
<rect width="23.1101" height="23.1101" fill="white" transform="matrix(-1 0 0 1 101.298 0.870422)"/>
</clipPath>
<clipPath id="clip4">
<rect width="23.1101" height="23.1101" fill="white" transform="matrix(-1 0 0 1 127.297 0.870422)"/>
</clipPath>
</defs>
</svg>
