<svg width="63" height="27" viewBox="0 0 63 27" fill="none" xmlns="http://www.w3.org/2000/svg">
<path d="M60.4444 22.4444H42.5556V4.55556H51.5V2H42.5556C41.15 2 40 3.15 40 4.55556V22.4444C40 23.85 41.15 25 42.5556 25H60.4444C61.85 25 63 23.85 63 22.4444V13.5H60.4444V22.4444ZM54.0556 2V4.55556H58.6556L46.1333 17.0778L47.9222 18.8666L60.4444 6.34444V10.9444H63V2H54.0556Z" fill="#DCE5F2"/>
<path d="M3.72626 17.5025C4.75419 17.5025 5.65363 17.0955 6.29609 16.4171L15.419 21.9799C15.2905 22.2513 15.2905 22.6583 15.2905 22.9296C15.2905 25.2362 16.9609 27 19.1453 27C21.3296 27 23 25.2362 23 22.9296C23 20.6231 21.3296 18.8593 19.1453 18.8593C18.1173 18.8593 17.2179 19.2663 16.5754 19.9447L7.45251 14.3819C7.58101 14.1106 7.58101 13.7035 7.58101 13.4322C7.58101 13.1608 7.58101 12.7538 7.45251 12.4824L16.5754 6.78392C17.2179 7.46231 18.1173 7.86935 19.1453 7.86935C21.2011 7.86935 22.8715 6.10553 22.8715 3.93468C22.8715 1.76382 21.2011 1.75009e-06 19.1453 1.57036e-06C17.0894 1.39063e-06 15.419 1.76382 15.419 3.93467C15.419 4.20603 15.419 4.47739 15.5475 4.88442L6.42458 10.5829C5.78212 9.90452 4.88268 9.49749 3.85475 9.49749C1.67039 9.49749 -5.31429e-07 11.2613 -7.33072e-07 13.5678C-9.34715e-07 15.8744 1.5419 17.5025 3.72626 17.5025Z" fill="#DCE5F2"/>
</svg>
